<?xml version="1.0" encoding="utf-8"?>
<!-- Uploaded to: SVG Repo, www.svgrepo.com, Generator: SVG Repo Mixer Tools -->
<svg width="800px" height="800px" viewBox="0 0 1024 1024" class="icon"  version="1.1" xmlns="http://www.w3.org/2000/svg"><path d="M869.4 580.9L526.9 238.4c-19-19-19-50.1 0-69.1l9.3-9.3c19-19 50.1-19 69.1 0l342.5 342.5c19 19 19 50.1 0 69.1l-9.3 9.3c-19 19-50.1 19-69.1 0z" fill="#FFB89A" /><path d="M190.6 624.8c-5.4 0-10.8-1.4-15.7-4.5-14.1-8.7-18.5-27.2-9.8-41.3 3.9-6.4 6.3-16.2 6.3-26.3 0-16.7-5.9-26.8-8.7-29.5-15.6-1.1-27.9-14.1-27.9-29.9 0-16.6 13.4-30 30-30 20.3 0 39 11.5 51.5 31.7 9.8 15.9 15.2 36.4 15.2 57.8s-5.4 41.9-15.2 57.8c-5.8 9.1-15.7 14.1-25.7 14.2z m-25.9-101.6z" fill="#33CC99" /><path d="M576.9 837.2h-60c0-1-1.9-4.4-7.5-8-8.8-5.7-21.5-8.9-34.9-8.9-19.3 0-34 6.6-40.1 13.2l-43.9-40.9c18.8-20.2 50.3-32.3 84.1-32.3 57.3-0.1 102.3 33.7 102.3 76.9z" fill="#33CC99" /><path d="M221.2 611.2c-7.8 0-15.5-3-21.4-9-11.6-11.8-11.4-30.8 0.4-42.4L441.8 323c11.8-11.6 30.8-11.4 42.4 0.4 11.6 11.8 11.4 30.8-0.4 42.4L242.2 602.6c-5.9 5.7-13.5 8.6-21 8.6zM442 797.8c-7.7 0-15.4-2.9-21.2-8.8-11.7-11.7-11.7-30.7 0-42.4l191.9-191.8c11.7-11.7 30.7-11.7 42.4 0s11.7 30.7 0 42.4L463.2 789c-5.8 5.9-13.5 8.8-21.2 8.8zM816.1 596.6c-7.8 0-15.5-3-21.4-9l-30.8-31.3c-11.6-11.8-11.4-30.8 0.4-42.4 11.8-11.6 30.8-11.4 42.4 0.4l30.8 31.3c11.6 11.8 11.4 30.8-0.4 42.4-5.8 5.7-13.4 8.6-21 8.6zM710.1 488.7c-7.8 0-15.5-3-21.4-9l-262-266.9c-11.6-11.8-11.4-30.8 0.4-42.4 11.8-11.6 30.8-11.4 42.4 0.4l262 266.9c11.6 11.8 11.4 30.8-0.4 42.4-5.8 5.7-13.4 8.6-21 8.6z" fill="#33CC99" /><path d="M538 297.1c-8 0-15.9-3.2-21.8-9.4-11.4-12.1-10.8-31 1.2-42.4l36.6-34.5c12.1-11.4 31-10.8 42.4 1.2 11.4 12.1 10.8 31-1.2 42.4l-36.6 34.5c-5.8 5.5-13.2 8.2-20.6 8.2zM722.2 506.9c-7.7 0-15.4-2.9-21.2-8.8-11.7-11.7-11.7-30.7 0-42.4l49.7-49.7c11.7-11.7 30.7-11.7 42.4 0s11.7 30.7 0 42.4l-49.7 49.7c-5.8 5.9-13.5 8.8-21.2 8.8z" fill="#33CC99" /><path d="M411.7 842.3c-7.7 0-15.4-2.9-21.2-8.8-11.7-11.7-11.7-30.7 0-42.4 6.5-6.5 16.3-21.9 10-52.6-5.5-26.9-22.2-55.8-45.9-79.5-23.6-23.6-52.6-40.4-79.5-45.9-30.7-6.3-46.1 3.6-52.6 10-11.7 11.7-30.7 11.7-42.4 0s-11.7-30.7 0-42.4c25.5-25.5 64.5-35.1 107.1-26.4 38.6 7.9 77.6 30 109.8 62.2s54.3 71.2 62.2 109.8c8.7 42.5-0.9 81.6-26.4 107.1-5.8 6-13.5 8.9-21.1 8.9z" fill="#33CC99" /><path d="M904.6 373.5L634 102.9c-23.1-23.1-53.6-34.7-84-34.7-30.5 0-60.9 11.6-84 34.7L96.1 472.7c-3.6 3.6-9.9 9.2-6.9 13.1L65.7 922.5l462.1-4.1 376.9-376.9c46.1-46.1 46.1-121.8-0.1-168z m-42.4 125.7L502.7 858.7l-301.3 2.6-66.7-69.4 19.8-292.7 353.9-353.9c11-11 25.8-17.1 41.6-17.1s30.6 6.1 41.6 17.1L862.2 416c11 11 17.1 25.8 17.1 41.6s-6.1 30.5-17.1 41.6z" fill="#45484C" /></svg>